<svg width="243" height="241" viewBox="0 0 243 241" fill="none" xmlns="http://www.w3.org/2000/svg">
<g id="bottom-illustration" clip-path="url(#clip0_687_85992)">
<g id="&#240;&#159;&#147;&#157;-Pages">
<g id="Login---V2">
<g id="Shapes">
<g id="bottom-illustration_2">
<path id="Rectangle" opacity="0.04" d="M205 0.400024H10C4.47715 0.400024 0 4.87718 0 10.4V206.4C0 211.923 4.47715 216.4 10 216.4H205C210.523 216.4 215 211.923 215 206.4V10.4C215 4.87718 210.523 0.400024 205 0.400024Z" fill="#696CFF"/>
<path id="Rectangle_2" d="M232.5 100.9H114.5C108.977 100.9 104.5 105.377 104.5 110.9V229.9C104.5 235.423 108.977 239.9 114.5 239.9H232.5C238.023 239.9 242.5 235.423 242.5 229.9V110.9C242.5 105.377 238.023 100.9 232.5 100.9Z" stroke="#A1ACB8" stroke-opacity="0.48"/>
<g id="Dot">
<path id="Vector" d="M34.5 182.4C35.8807 182.4 37 183.519 37 184.9C37 186.281 35.8807 187.4 34.5 187.4C33.1193 187.4 32 186.281 32 184.9C32 183.519 33.1193 182.4 34.5 182.4ZM61.5 182.4C62.8807 182.4 64 183.519 64 184.9C64 186.281 62.8807 187.4 61.5 187.4C60.1193 187.4 59 186.281 59 184.9C59 183.519 60.1193 182.4 61.5 182.4ZM91.5 182.4C92.8807 182.4 94 183.519 94 184.9C94 186.281 92.8807 187.4 91.5 187.4C90.1193 187.4 89 186.281 89 184.9C89 183.519 90.1193 182.4 91.5 182.4ZM123.5 182.4C124.881 182.4 126 183.519 126 184.9C126 186.281 124.881 187.4 123.5 187.4C122.119 187.4 121 186.281 121 184.9C121 183.519 122.119 182.4 123.5 182.4ZM153.5 182.4C154.881 182.4 156 183.519 156 184.9C156 186.281 154.881 187.4 153.5 187.4C152.119 187.4 151 186.281 151 184.9C151 183.519 152.119 182.4 153.5 182.4ZM180.5 182.4C181.881 182.4 183 183.519 183 184.9C183 186.281 181.881 187.4 180.5 187.4C179.119 187.4 178 186.281 178 184.9C178 183.519 179.119 182.4 180.5 182.4ZM34.5 154.4C35.8807 154.4 37 155.519 37 156.9C37 158.281 35.8807 159.4 34.5 159.4C33.1193 159.4 32 158.281 32 156.9C32 155.519 33.1193 154.4 34.5 154.4ZM61.5 154.4C62.8807 154.4 64 155.519 64 156.9C64 158.281 62.8807 159.4 61.5 159.4C60.1193 159.4 59 158.281 59 156.9C59 155.519 60.1193 154.4 61.5 154.4ZM91.5 154.4C92.8807 154.4 94 155.519 94 156.9C94 158.281 92.8807 159.4 91.5 159.4C90.1193 159.4 89 158.281 89 156.9C89 155.519 90.1193 154.4 91.5 154.4ZM123.5 154.4C124.881 154.4 126 155.519 126 156.9C126 158.281 124.881 159.4 123.5 159.4C122.119 159.4 121 158.281 121 156.9C121 155.519 122.119 154.4 123.5 154.4ZM153.5 154.4C154.881 154.4 156 155.519 156 156.9C156 158.281 154.881 159.4 153.5 159.4C152.119 159.4 151 158.281 151 156.9C151 155.519 152.119 154.4 153.5 154.4ZM180.5 154.4C181.881 154.4 183 155.519 183 156.9C183 158.281 181.881 159.4 180.5 159.4C179.119 159.4 178 158.281 178 156.9C178 155.519 179.119 154.4 180.5 154.4ZM34.5 124.4C35.8807 124.4 37 125.519 37 126.9C37 128.281 35.8807 129.4 34.5 129.4C33.1193 129.4 32 128.281 32 126.9C32 125.519 33.1193 124.4 34.5 124.4ZM61.5 124.4C62.8807 124.4 64 125.519 64 126.9C64 128.281 62.8807 129.4 61.5 129.4C60.1193 129.4 59 128.281 59 126.9C59 125.519 60.1193 124.4 61.5 124.4ZM91.5 124.4C92.8807 124.4 94 125.519 94 126.9C94 128.281 92.8807 129.4 91.5 129.4C90.1193 129.4 89 128.281 89 126.9C89 125.519 90.1193 124.4 91.5 124.4ZM123.5 124.4C124.881 124.4 126 125.519 126 126.9C126 128.281 124.881 129.4 123.5 129.4C122.119 129.4 121 128.281 121 126.9C121 125.519 122.119 124.4 123.5 124.4ZM153.5 124.4C154.881 124.4 156 125.519 156 126.9C156 128.281 154.881 129.4 153.5 129.4C152.119 129.4 151 128.281 151 126.9C151 125.519 152.119 124.4 153.5 124.4ZM180.5 124.4C181.881 124.4 183 125.519 183 126.9C183 128.281 181.881 129.4 180.5 129.4C179.119 129.4 178 128.281 178 126.9C178 125.519 179.119 124.4 180.5 124.4ZM34.5 94.4C35.8807 94.4 37 95.5193 37 96.9C37 98.2807 35.8807 99.4 34.5 99.4C33.1193 99.4 32 98.2807 32 96.9C32 95.5193 33.1193 94.4 34.5 94.4ZM153.5 94.4C154.881 94.4 156 95.5193 156 96.9C156 98.2807 154.881 99.4 153.5 99.4C152.119 99.4 151 98.2807 151 96.9C151 95.5193 152.119 94.4 153.5 94.4ZM91.5 94.4C92.8807 94.4 94 95.5193 94 96.9C94 98.2807 92.8807 99.4 91.5 99.4C90.1193 99.4 89 98.2807 89 96.9C89 95.5193 90.1193 94.4 91.5 94.4ZM180.5 94.4C181.881 94.4 183 95.5193 183 96.9C183 98.2807 181.881 99.4 180.5 99.4C179.119 99.4 178 98.2807 178 96.9C178 95.5193 179.119 94.4 180.5 94.4ZM61.5 94.4C62.8807 94.4 64 95.5193 64 96.9C64 98.2807 62.8807 99.4 61.5 99.4C60.1193 99.4 59 98.2807 59 96.9C59 95.5193 60.1193 94.4 61.5 94.4ZM123.5 94.4C124.881 94.4 126 95.5193 126 96.9C126 98.2807 124.881 99.4 123.5 99.4C122.119 99.4 121 98.2807 121 96.9C121 95.5193 122.119 94.4 123.5 94.4ZM34.5 64.4C35.8807 64.4 37 65.5193 37 66.9C37 68.2807 35.8807 69.4 34.5 69.4C33.1193 69.4 32 68.2807 32 66.9C32 65.5193 33.1193 64.4 34.5 64.4ZM61.5 64.4C62.8807 64.4 64 65.5193 64 66.9C64 68.2807 62.8807 69.4 61.5 69.4C60.1193 69.4 59 68.2807 59 66.9C59 65.5193 60.1193 64.4 61.5 64.4ZM91.5 64.4C92.8807 64.4 94 65.5193 94 66.9C94 68.2807 92.8807 69.4 91.5 69.4C90.1193 69.4 89 68.2807 89 66.9C89 65.5193 90.1193 64.4 91.5 64.4ZM123.5 64.4C124.881 64.4 126 65.5193 126 66.9C126 68.2807 124.881 69.4 123.5 69.4C122.119 69.4 121 68.2807 121 66.9C121 65.5193 122.119 64.4 123.5 64.4ZM153.5 64.4C154.881 64.4 156 65.5193 156 66.9C156 68.2807 154.881 69.4 153.5 69.4C152.119 69.4 151 68.2807 151 66.9C151 65.5193 152.119 64.4 153.5 64.4ZM180.5 64.4C181.881 64.4 183 65.5193 183 66.9C183 68.2807 181.881 69.4 180.5 69.4C179.119 69.4 178 68.2807 178 66.9C178 65.5193 179.119 64.4 180.5 64.4ZM34.5 37.4C35.8807 37.4 37 38.5193 37 39.9C37 41.2807 35.8807 42.4 34.5 42.4C33.1193 42.4 32 41.2807 32 39.9C32 38.5193 33.1193 37.4 34.5 37.4ZM61.5 37.4C62.8807 37.4 64 38.5193 64 39.9C64 41.2807 62.8807 42.4 61.5 42.4C60.1193 42.4 59 41.2807 59 39.9C59 38.5193 60.1193 37.4 61.5 37.4ZM91.5 37.4C92.8807 37.4 94 38.5193 94 39.9C94 41.2807 92.8807 42.4 91.5 42.4C90.1193 42.4 89 41.2807 89 39.9C89 38.5193 90.1193 37.4 91.5 37.4ZM123.5 37.4C124.881 37.4 126 38.5193 126 39.9C126 41.2807 124.881 42.4 123.5 42.4C122.119 42.4 121 41.2807 121 39.9C121 38.5193 122.119 37.4 123.5 37.4ZM153.5 37.4C154.881 37.4 156 38.5193 156 39.9C156 41.2807 154.881 42.4 153.5 42.4C152.119 42.4 151 41.2807 151 39.9C151 38.5193 152.119 37.4 153.5 37.4ZM180.5 37.4C181.881 37.4 183 38.5193 183 39.9C183 41.2807 181.881 42.4 180.5 42.4C179.119 42.4 178 41.2807 178 39.9C178 38.5193 179.119 37.4 180.5 37.4Z" fill="#696CFF"/>
<path id="Vector_2" d="M34.5 182.4C35.8807 182.4 37 183.519 37 184.9C37 186.281 35.8807 187.4 34.5 187.4C33.1193 187.4 32 186.281 32 184.9C32 183.519 33.1193 182.4 34.5 182.4ZM61.5 182.4C62.8807 182.4 64 183.519 64 184.9C64 186.281 62.8807 187.4 61.5 187.4C60.1193 187.4 59 186.281 59 184.9C59 183.519 60.1193 182.4 61.5 182.4ZM91.5 182.4C92.8807 182.4 94 183.519 94 184.9C94 186.281 92.8807 187.4 91.5 187.4C90.1193 187.4 89 186.281 89 184.9C89 183.519 90.1193 182.4 91.5 182.4ZM123.5 182.4C124.881 182.4 126 183.519 126 184.9C126 186.281 124.881 187.4 123.5 187.4C122.119 187.4 121 186.281 121 184.9C121 183.519 122.119 182.4 123.5 182.4ZM153.5 182.4C154.881 182.4 156 183.519 156 184.9C156 186.281 154.881 187.4 153.5 187.4C152.119 187.4 151 186.281 151 184.9C151 183.519 152.119 182.4 153.5 182.4ZM180.5 182.4C181.881 182.4 183 183.519 183 184.9C183 186.281 181.881 187.4 180.5 187.4C179.119 187.4 178 186.281 178 184.9C178 183.519 179.119 182.4 180.5 182.4ZM34.5 154.4C35.8807 154.4 37 155.519 37 156.9C37 158.281 35.8807 159.4 34.5 159.4C33.1193 159.4 32 158.281 32 156.9C32 155.519 33.1193 154.4 34.5 154.4ZM61.5 154.4C62.8807 154.4 64 155.519 64 156.9C64 158.281 62.8807 159.4 61.5 159.4C60.1193 159.4 59 158.281 59 156.9C59 155.519 60.1193 154.4 61.5 154.4ZM91.5 154.4C92.8807 154.4 94 155.519 94 156.9C94 158.281 92.8807 159.4 91.5 159.4C90.1193 159.4 89 158.281 89 156.9C89 155.519 90.1193 154.4 91.5 154.4ZM123.5 154.4C124.881 154.4 126 155.519 126 156.9C126 158.281 124.881 159.4 123.5 159.4C122.119 159.4 121 158.281 121 156.9C121 155.519 122.119 154.4 123.5 154.4ZM153.5 154.4C154.881 154.4 156 155.519 156 156.9C156 158.281 154.881 159.4 153.5 159.4C152.119 159.4 151 158.281 151 156.9C151 155.519 152.119 154.4 153.5 154.4ZM180.5 154.4C181.881 154.4 183 155.519 183 156.9C183 158.281 181.881 159.4 180.5 159.4C179.119 159.4 178 158.281 178 156.9C178 155.519 179.119 154.4 180.5 154.4ZM34.5 124.4C35.8807 124.4 37 125.519 37 126.9C37 128.281 35.8807 129.4 34.5 129.4C33.1193 129.4 32 128.281 32 126.9C32 125.519 33.1193 124.4 34.5 124.4ZM61.5 124.4C62.8807 124.4 64 125.519 64 126.9C64 128.281 62.8807 129.4 61.5 129.4C60.1193 129.4 59 128.281 59 126.9C59 125.519 60.1193 124.4 61.5 124.4ZM91.5 124.4C92.8807 124.4 94 125.519 94 126.9C94 128.281 92.8807 129.4 91.5 129.4C90.1193 129.4 89 128.281 89 126.9C89 125.519 90.1193 124.4 91.5 124.4ZM123.5 124.4C124.881 124.4 126 125.519 126 126.9C126 128.281 124.881 129.4 123.5 129.4C122.119 129.4 121 128.281 121 126.9C121 125.519 122.119 124.4 123.5 124.4ZM153.5 124.4C154.881 124.4 156 125.519 156 126.9C156 128.281 154.881 129.4 153.5 129.4C152.119 129.4 151 128.281 151 126.9C151 125.519 152.119 124.4 153.5 124.4ZM180.5 124.4C181.881 124.4 183 125.519 183 126.9C183 128.281 181.881 129.4 180.5 129.4C179.119 129.4 178 128.281 178 126.9C178 125.519 179.119 124.4 180.5 124.4ZM34.5 94.4C35.8807 94.4 37 95.5193 37 96.9C37 98.2807 35.8807 99.4 34.5 99.4C33.1193 99.4 32 98.2807 32 96.9C32 95.5193 33.1193 94.4 34.5 94.4ZM153.5 94.4C154.881 94.4 156 95.5193 156 96.9C156 98.2807 154.881 99.4 153.5 99.4C152.119 99.4 151 98.2807 151 96.9C151 95.5193 152.119 94.4 153.5 94.4ZM91.5 94.4C92.8807 94.4 94 95.5193 94 96.9C94 98.2807 92.8807 99.4 91.5 99.4C90.1193 99.4 89 98.2807 89 96.9C89 95.5193 90.1193 94.4 91.5 94.4ZM180.5 94.4C181.881 94.4 183 95.5193 183 96.9C183 98.2807 181.881 99.4 180.5 99.4C179.119 99.4 178 98.2807 178 96.9C178 95.5193 179.119 94.4 180.5 94.4ZM61.5 94.4C62.8807 94.4 64 95.5193 64 96.9C64 98.2807 62.8807 99.4 61.5 99.4C60.1193 99.4 59 98.2807 59 96.9C59 95.5193 60.1193 94.4 61.5 94.4ZM123.5 94.4C124.881 94.4 126 95.5193 126 96.9C126 98.2807 124.881 99.4 123.5 99.4C122.119 99.4 121 98.2807 121 96.9C121 95.5193 122.119 94.4 123.5 94.4ZM34.5 64.4C35.8807 64.4 37 65.5193 37 66.9C37 68.2807 35.8807 69.4 34.5 69.4C33.1193 69.4 32 68.2807 32 66.9C32 65.5193 33.1193 64.4 34.5 64.4ZM61.5 64.4C62.8807 64.4 64 65.5193 64 66.9C64 68.2807 62.8807 69.4 61.5 69.4C60.1193 69.4 59 68.2807 59 66.9C59 65.5193 60.1193 64.4 61.5 64.4ZM91.5 64.4C92.8807 64.4 94 65.5193 94 66.9C94 68.2807 92.8807 69.4 91.5 69.4C90.1193 69.4 89 68.2807 89 66.9C89 65.5193 90.1193 64.4 91.5 64.4ZM123.5 64.4C124.881 64.4 126 65.5193 126 66.9C126 68.2807 124.881 69.4 123.5 69.4C122.119 69.4 121 68.2807 121 66.9C121 65.5193 122.119 64.4 123.5 64.4ZM153.5 64.4C154.881 64.4 156 65.5193 156 66.9C156 68.2807 154.881 69.4 153.5 69.4C152.119 69.4 151 68.2807 151 66.9C151 65.5193 152.119 64.4 153.5 64.4ZM180.5 64.4C181.881 64.4 183 65.5193 183 66.9C183 68.2807 181.881 69.4 180.5 69.4C179.119 69.4 178 68.2807 178 66.9C178 65.5193 179.119 64.4 180.5 64.4ZM34.5 37.4C35.8807 37.4 37 38.5193 37 39.9C37 41.2807 35.8807 42.4 34.5 42.4C33.1193 42.4 32 41.2807 32 39.9C32 38.5193 33.1193 37.4 34.5 37.4ZM61.5 37.4C62.8807 37.4 64 38.5193 64 39.9C64 41.2807 62.8807 42.4 61.5 42.4C60.1193 42.4 59 41.2807 59 39.9C59 38.5193 60.1193 37.4 61.5 37.4ZM91.5 37.4C92.8807 37.4 94 38.5193 94 39.9C94 41.2807 92.8807 42.4 91.5 42.4C90.1193 42.4 89 41.2807 89 39.9C89 38.5193 90.1193 37.4 91.5 37.4ZM123.5 37.4C124.881 37.4 126 38.5193 126 39.9C126 41.2807 124.881 42.4 123.5 42.4C122.119 42.4 121 41.2807 121 39.9C121 38.5193 122.119 37.4 123.5 37.4ZM153.5 37.4C154.881 37.4 156 38.5193 156 39.9C156 41.2807 154.881 42.4 153.5 42.4C152.119 42.4 151 41.2807 151 39.9C151 38.5193 152.119 37.4 153.5 37.4ZM180.5 37.4C181.881 37.4 183 38.5193 183 39.9C183 41.2807 181.881 42.4 180.5 42.4C179.119 42.4 178 41.2807 178 39.9C178 38.5193 179.119 37.4 180.5 37.4Z" fill="white" fill-opacity="0.6"/>
</g>
</g>
</g>
</g>
</g>
</g>
<defs>
<clipPath id="clip0_687_85992">
<rect width="243" height="240" fill="white" transform="translate(0 0.400024)"/>
</clipPath>
</defs>
</svg>
