<svg width="148" height="148" viewBox="0 0 148 148" fill="none" xmlns="http://www.w3.org/2000/svg">
<g id="top-illustration" clip-path="url(#clip0_687_85986)">
<g id="&#240;&#159;&#147;&#157;-Pages">
<g id="Login---V2">
<g id="top-illustration_2">
<path id="Vector" d="M2 144C3.10457 144 4 144.895 4 146C4 147.105 3.10457 148 2 148C0.895431 148 0 147.105 0 146C0 144.895 0.895431 144 2 144ZM29 144C30.1046 144 31 144.895 31 146C31 147.105 30.1046 148 29 148C27.8954 148 27 147.105 27 146C27 144.895 27.8954 144 29 144ZM59 144C60.1046 144 61 144.895 61 146C61 147.105 60.1046 148 59 148C57.8954 148 57 147.105 57 146C57 144.895 57.8954 144 59 144ZM89 144C90.1046 144 91 144.895 91 146C91 147.105 90.1046 148 89 148C87.8954 148 87 147.105 87 146C87 144.895 87.8954 144 89 144ZM119 144C120.105 144 121 144.895 121 146C121 147.105 120.105 148 119 148C117.895 148 117 147.105 117 146C117 144.895 117.895 144 119 144ZM146 144C147.105 144 148 144.895 148 146C148 147.105 147.105 148 146 148C144.895 148 144 147.105 144 146C144 144.895 144.895 144 146 144ZM2 117C3.10457 117 4 117.895 4 119C4 120.105 3.10457 121 2 121C0.895431 121 0 120.105 0 119C0 117.895 0.895431 117 2 117ZM29 117C30.1046 117 31 117.895 31 119C31 120.105 30.1046 121 29 121C27.8954 121 27 120.105 27 119C27 117.895 27.8954 117 29 117ZM59 117C60.1046 117 61 117.895 61 119C61 120.105 60.1046 121 59 121C57.8954 121 57 120.105 57 119C57 117.895 57.8954 117 59 117ZM89 117C90.1046 117 91 117.895 91 119C91 120.105 90.1046 121 89 121C87.8954 121 87 120.105 87 119C87 117.895 87.8954 117 89 117ZM119 117C120.105 117 121 117.895 121 119C121 120.105 120.105 121 119 121C117.895 121 117 120.105 117 119C117 117.895 117.895 117 119 117ZM146 117C147.105 117 148 117.895 148 119C148 120.105 147.105 121 146 121C144.895 121 144 120.105 144 119C144 117.895 144.895 117 146 117ZM2 87C3.10457 87 4 87.8954 4 89C4 90.1046 3.10457 91 2 91C0.895431 91 0 90.1046 0 89C0 87.8954 0.895431 87 2 87ZM29 87C30.1046 87 31 87.8954 31 89C31 90.1046 30.1046 91 29 91C27.8954 91 27 90.1046 27 89C27 87.8954 27.8954 87 29 87ZM59 87C60.1046 87 61 87.8954 61 89C61 90.1046 60.1046 91 59 91C57.8954 91 57 90.1046 57 89C57 87.8954 57.8954 87 59 87ZM89 87C90.1046 87 91 87.8954 91 89C91 90.1046 90.1046 91 89 91C87.8954 91 87 90.1046 87 89C87 87.8954 87.8954 87 89 87ZM119 87C120.105 87 121 87.8954 121 89C121 90.1046 120.105 91 119 91C117.895 91 117 90.1046 117 89C117 87.8954 117.895 87 119 87ZM146 87C147.105 87 148 87.8954 148 89C148 90.1046 147.105 91 146 91C144.895 91 144 90.1046 144 89C144 87.8954 144.895 87 146 87ZM2 57C3.10457 57 4 57.8954 4 59C4 60.1046 3.10457 61 2 61C0.895431 61 0 60.1046 0 59C0 57.8954 0.895431 57 2 57ZM119 57C120.105 57 121 57.8954 121 59C121 60.1046 120.105 61 119 61C117.895 61 117 60.1046 117 59C117 57.8954 117.895 57 119 57ZM59 57C60.1046 57 61 57.8954 61 59C61 60.1046 60.1046 61 59 61C57.8954 61 57 60.1046 57 59C57 57.8954 57.8954 57 59 57ZM146 57C147.105 57 148 57.8954 148 59C148 60.1046 147.105 61 146 61C144.895 61 144 60.1046 144 59C144 57.8954 144.895 57 146 57ZM29 57C30.1046 57 31 57.8954 31 59C31 60.1046 30.1046 61 29 61C27.8954 61 27 60.1046 27 59C27 57.8954 27.8954 57 29 57ZM89 57C90.1046 57 91 57.8954 91 59C91 60.1046 90.1046 61 89 61C87.8954 61 87 60.1046 87 59C87 57.8954 87.8954 57 89 57ZM2 27C3.10457 27 4 27.8954 4 29C4 30.1046 3.10457 31 2 31C0.895431 31 0 30.1046 0 29C0 27.8954 0.895431 27 2 27ZM29 27C30.1046 27 31 27.8954 31 29C31 30.1046 30.1046 31 29 31C27.8954 31 27 30.1046 27 29C27 27.8954 27.8954 27 29 27ZM59 27C60.1046 27 61 27.8954 61 29C61 30.1046 60.1046 31 59 31C57.8954 31 57 30.1046 57 29C57 27.8954 57.8954 27 59 27ZM89 27C90.1046 27 91 27.8954 91 29C91 30.1046 90.1046 31 89 31C87.8954 31 87 30.1046 87 29C87 27.8954 87.8954 27 89 27ZM119 27C120.105 27 121 27.8954 121 29C121 30.1046 120.105 31 119 31C117.895 31 117 30.1046 117 29C117 27.8954 117.895 27 119 27ZM146 27C147.105 27 148 27.8954 148 29C148 30.1046 147.105 31 146 31C144.895 31 144 30.1046 144 29C144 27.8954 144.895 27 146 27ZM2 0C3.10457 0 4 0.89543 4 2C4 3.10457 3.10457 4 2 4C0.895431 4 0 3.10457 0 2C0 0.89543 0.895431 0 2 0ZM29 0C30.1046 0 31 0.89543 31 2C31 3.10457 30.1046 4 29 4C27.8954 4 27 3.10457 27 2C27 0.89543 27.8954 0 29 0ZM59 0C60.1046 0 61 0.89543 61 2C61 3.10457 60.1046 4 59 4C57.8954 4 57 3.10457 57 2C57 0.89543 57.8954 0 59 0ZM89 0C90.1046 0 91 0.89543 91 2C91 3.10457 90.1046 4 89 4C87.8954 4 87 3.10457 87 2C87 0.89543 87.8954 0 89 0ZM119 0C120.105 0 121 0.89543 121 2C121 3.10457 120.105 4 119 4C117.895 4 117 3.10457 117 2C117 0.89543 117.895 0 119 0ZM146 0C147.105 0 148 0.89543 148 2C148 3.10457 147.105 4 146 4C144.895 4 144 3.10457 144 2C144 0.89543 144.895 0 146 0Z" fill="#696CFF"/>
<path id="Vector_2" d="M2 144C3.10457 144 4 144.895 4 146C4 147.105 3.10457 148 2 148C0.895431 148 0 147.105 0 146C0 144.895 0.895431 144 2 144ZM29 144C30.1046 144 31 144.895 31 146C31 147.105 30.1046 148 29 148C27.8954 148 27 147.105 27 146C27 144.895 27.8954 144 29 144ZM59 144C60.1046 144 61 144.895 61 146C61 147.105 60.1046 148 59 148C57.8954 148 57 147.105 57 146C57 144.895 57.8954 144 59 144ZM89 144C90.1046 144 91 144.895 91 146C91 147.105 90.1046 148 89 148C87.8954 148 87 147.105 87 146C87 144.895 87.8954 144 89 144ZM119 144C120.105 144 121 144.895 121 146C121 147.105 120.105 148 119 148C117.895 148 117 147.105 117 146C117 144.895 117.895 144 119 144ZM146 144C147.105 144 148 144.895 148 146C148 147.105 147.105 148 146 148C144.895 148 144 147.105 144 146C144 144.895 144.895 144 146 144ZM2 117C3.10457 117 4 117.895 4 119C4 120.105 3.10457 121 2 121C0.895431 121 0 120.105 0 119C0 117.895 0.895431 117 2 117ZM29 117C30.1046 117 31 117.895 31 119C31 120.105 30.1046 121 29 121C27.8954 121 27 120.105 27 119C27 117.895 27.8954 117 29 117ZM59 117C60.1046 117 61 117.895 61 119C61 120.105 60.1046 121 59 121C57.8954 121 57 120.105 57 119C57 117.895 57.8954 117 59 117ZM89 117C90.1046 117 91 117.895 91 119C91 120.105 90.1046 121 89 121C87.8954 121 87 120.105 87 119C87 117.895 87.8954 117 89 117ZM119 117C120.105 117 121 117.895 121 119C121 120.105 120.105 121 119 121C117.895 121 117 120.105 117 119C117 117.895 117.895 117 119 117ZM146 117C147.105 117 148 117.895 148 119C148 120.105 147.105 121 146 121C144.895 121 144 120.105 144 119C144 117.895 144.895 117 146 117ZM2 87C3.10457 87 4 87.8954 4 89C4 90.1046 3.10457 91 2 91C0.895431 91 0 90.1046 0 89C0 87.8954 0.895431 87 2 87ZM29 87C30.1046 87 31 87.8954 31 89C31 90.1046 30.1046 91 29 91C27.8954 91 27 90.1046 27 89C27 87.8954 27.8954 87 29 87ZM59 87C60.1046 87 61 87.8954 61 89C61 90.1046 60.1046 91 59 91C57.8954 91 57 90.1046 57 89C57 87.8954 57.8954 87 59 87ZM89 87C90.1046 87 91 87.8954 91 89C91 90.1046 90.1046 91 89 91C87.8954 91 87 90.1046 87 89C87 87.8954 87.8954 87 89 87ZM119 87C120.105 87 121 87.8954 121 89C121 90.1046 120.105 91 119 91C117.895 91 117 90.1046 117 89C117 87.8954 117.895 87 119 87ZM146 87C147.105 87 148 87.8954 148 89C148 90.1046 147.105 91 146 91C144.895 91 144 90.1046 144 89C144 87.8954 144.895 87 146 87ZM2 57C3.10457 57 4 57.8954 4 59C4 60.1046 3.10457 61 2 61C0.895431 61 0 60.1046 0 59C0 57.8954 0.895431 57 2 57ZM119 57C120.105 57 121 57.8954 121 59C121 60.1046 120.105 61 119 61C117.895 61 117 60.1046 117 59C117 57.8954 117.895 57 119 57ZM59 57C60.1046 57 61 57.8954 61 59C61 60.1046 60.1046 61 59 61C57.8954 61 57 60.1046 57 59C57 57.8954 57.8954 57 59 57ZM146 57C147.105 57 148 57.8954 148 59C148 60.1046 147.105 61 146 61C144.895 61 144 60.1046 144 59C144 57.8954 144.895 57 146 57ZM29 57C30.1046 57 31 57.8954 31 59C31 60.1046 30.1046 61 29 61C27.8954 61 27 60.1046 27 59C27 57.8954 27.8954 57 29 57ZM89 57C90.1046 57 91 57.8954 91 59C91 60.1046 90.1046 61 89 61C87.8954 61 87 60.1046 87 59C87 57.8954 87.8954 57 89 57ZM2 27C3.10457 27 4 27.8954 4 29C4 30.1046 3.10457 31 2 31C0.895431 31 0 30.1046 0 29C0 27.8954 0.895431 27 2 27ZM29 27C30.1046 27 31 27.8954 31 29C31 30.1046 30.1046 31 29 31C27.8954 31 27 30.1046 27 29C27 27.8954 27.8954 27 29 27ZM59 27C60.1046 27 61 27.8954 61 29C61 30.1046 60.1046 31 59 31C57.8954 31 57 30.1046 57 29C57 27.8954 57.8954 27 59 27ZM89 27C90.1046 27 91 27.8954 91 29C91 30.1046 90.1046 31 89 31C87.8954 31 87 30.1046 87 29C87 27.8954 87.8954 27 89 27ZM119 27C120.105 27 121 27.8954 121 29C121 30.1046 120.105 31 119 31C117.895 31 117 30.1046 117 29C117 27.8954 117.895 27 119 27ZM146 27C147.105 27 148 27.8954 148 29C148 30.1046 147.105 31 146 31C144.895 31 144 30.1046 144 29C144 27.8954 144.895 27 146 27ZM2 0C3.10457 0 4 0.89543 4 2C4 3.10457 3.10457 4 2 4C0.895431 4 0 3.10457 0 2C0 0.89543 0.895431 0 2 0ZM29 0C30.1046 0 31 0.89543 31 2C31 3.10457 30.1046 4 29 4C27.8954 4 27 3.10457 27 2C27 0.89543 27.8954 0 29 0ZM59 0C60.1046 0 61 0.89543 61 2C61 3.10457 60.1046 4 59 4C57.8954 4 57 3.10457 57 2C57 0.89543 57.8954 0 59 0ZM89 0C90.1046 0 91 0.89543 91 2C91 3.10457 90.1046 4 89 4C87.8954 4 87 3.10457 87 2C87 0.89543 87.8954 0 89 0ZM119 0C120.105 0 121 0.89543 121 2C121 3.10457 120.105 4 119 4C117.895 4 117 3.10457 117 2C117 0.89543 117.895 0 119 0ZM146 0C147.105 0 148 0.89543 148 2C148 3.10457 147.105 4 146 4C144.895 4 144 3.10457 144 2C144 0.89543 144.895 0 146 0Z" fill="white" fill-opacity="0.6"/>
</g>
</g>
</g>
</g>
<defs>
<clipPath id="clip0_687_85986">
<rect width="148" height="148" fill="white"/>
</clipPath>
</defs>
</svg>
