<svg width="24" height="24" viewBox="0 0 24 24" fill="none" xmlns="http://www.w3.org/2000/svg">
<path d="M17.5514 3H6.75137C4.76314 3 3.15137 4.61177 3.15137 6.6V17.4C3.15137 19.3882 4.76314 21 6.75137 21H17.5514C19.5396 21 21.1514 19.3882 21.1514 17.4V6.6C21.1514 4.61177 19.5396 3 17.5514 3Z" fill="currentColor"/>
<path d="M8.63616 11.5666L8.53426 11.4723L8.43235 11.5666L7.54946 12.384L7.43057 12.4941L7.54946 12.6042L10.4885 15.3251L10.5904 15.4194L10.6923 15.3251L16.7533 9.71389L16.8722 9.60382L16.7533 9.49375L15.8704 8.67637L15.7685 8.58203L15.6666 8.67637L10.5904 13.3759L8.63616 11.5666Z" fill="white"/>
</svg>
